<?xml version="1.0" encoding="UTF-8" standalone="no"?>
<!DOCTYPE svg PUBLIC "-//W3C//DTD SVG 1.1//EN"
 "http://www.w3.org/Graphics/SVG/1.1/DTD/svg11.dtd">
<!-- Generated by graphviz version 13.1.0 (20250701.0955)
 -->
<!-- Pages: 1 -->
<svg width="264pt" height="404pt"
 viewBox="0.00 0.00 264.00 404.00" xmlns="http://www.w3.org/2000/svg" xmlns:xlink="http://www.w3.org/1999/xlink">
<g id="graph0" class="graph" transform="scale(1 1) rotate(0) translate(4 400)">
<polygon fill="white" stroke="none" points="-4,4 -4,-400 260.12,-400 260.12,4 -4,4"/>
<!-- 0 -->
<g id="node1" class="node">
<title>0</title>
<polygon fill="none" stroke="black" points="178.5,-324 90.5,-324 90.5,-288 178.5,-288 178.5,-324"/>
<text xml:space="preserve" text-anchor="middle" x="134.5" y="-300.95" font-family="Times,serif" font-size="14.00">safebrowsing</text>
</g>
<!-- 5 -->
<g id="node6" class="node">
<title>5</title>
<polygon fill="none" stroke="black" points="154.75,-252 20.25,-252 20.25,-216 154.75,-216 154.75,-252"/>
<text xml:space="preserve" text-anchor="middle" x="87.5" y="-228.95" font-family="Times,serif" font-size="14.00">safebrowsing&#45;db&#45;redb</text>
</g>
<!-- 0&#45;&gt;5 -->
<g id="edge1" class="edge">
<title>0&#45;&gt;5</title>
<path fill="none" stroke="black" stroke-dasharray="1,5" d="M122.88,-287.7C117.59,-279.81 111.2,-270.3 105.32,-261.55"/>
<polygon fill="black" stroke="black" points="108.31,-259.71 99.83,-253.36 102.5,-263.61 108.31,-259.71"/>
</g>
<!-- 6 -->
<g id="node7" class="node">
<title>6</title>
<polygon fill="none" stroke="black" points="251.25,-180 143.75,-180 143.75,-144 251.25,-144 251.25,-180"/>
<text xml:space="preserve" text-anchor="middle" x="197.5" y="-156.95" font-family="Times,serif" font-size="14.00">safebrowsing&#45;url</text>
</g>
<!-- 0&#45;&gt;6 -->
<g id="edge2" class="edge">
<title>0&#45;&gt;6</title>
<path fill="none" stroke="black" d="M144.78,-287.64C150.62,-277.44 157.87,-264.19 163.5,-252 172.72,-232.05 181.53,-208.83 187.87,-191.11"/>
<polygon fill="black" stroke="black" points="191.14,-192.37 191.16,-181.78 184.53,-190.04 191.14,-192.37"/>
</g>
<!-- 1 -->
<g id="node2" class="node">
<title>1</title>
<polygon fill="none" stroke="black" points="127,-108 18,-108 18,-72 127,-72 127,-108"/>
<text xml:space="preserve" text-anchor="middle" x="72.5" y="-84.95" font-family="Times,serif" font-size="14.00">safebrowsing&#45;api</text>
</g>
<!-- 2 -->
<g id="node3" class="node">
<title>2</title>
<polygon fill="none" stroke="black" points="256.12,-36 138.88,-36 138.88,0 256.12,0 256.12,-36"/>
<text xml:space="preserve" text-anchor="middle" x="197.5" y="-12.95" font-family="Times,serif" font-size="14.00">safebrowsing&#45;hash</text>
</g>
<!-- 1&#45;&gt;2 -->
<g id="edge3" class="edge">
<title>1&#45;&gt;2</title>
<path fill="none" stroke="black" d="M103.72,-71.52C119.8,-62.51 139.6,-51.42 156.86,-41.76"/>
<polygon fill="black" stroke="black" points="158.34,-44.94 165.36,-37 154.92,-38.83 158.34,-44.94"/>
</g>
<!-- 3 -->
<g id="node4" class="node">
<title>3</title>
<polygon fill="none" stroke="black" points="121,-36 0,-36 0,0 121,0 121,-36"/>
<text xml:space="preserve" text-anchor="middle" x="60.5" y="-12.95" font-family="Times,serif" font-size="14.00">safebrowsing&#45;proto</text>
</g>
<!-- 1&#45;&gt;3 -->
<g id="edge4" class="edge">
<title>1&#45;&gt;3</title>
<path fill="none" stroke="black" d="M69.53,-71.7C68.27,-64.32 66.76,-55.52 65.34,-47.25"/>
<polygon fill="black" stroke="black" points="68.83,-46.86 63.69,-37.6 61.93,-48.04 68.83,-46.86"/>
</g>
<!-- 4 -->
<g id="node5" class="node">
<title>4</title>
<polygon fill="none" stroke="black" points="125.5,-180 19.5,-180 19.5,-144 125.5,-144 125.5,-180"/>
<text xml:space="preserve" text-anchor="middle" x="72.5" y="-156.95" font-family="Times,serif" font-size="14.00">safebrowsing&#45;db</text>
</g>
<!-- 4&#45;&gt;1 -->
<g id="edge5" class="edge">
<title>4&#45;&gt;1</title>
<path fill="none" stroke="black" d="M72.5,-143.7C72.5,-136.41 72.5,-127.73 72.5,-119.54"/>
<polygon fill="black" stroke="black" points="76,-119.62 72.5,-109.62 69,-119.62 76,-119.62"/>
</g>
<!-- 5&#45;&gt;4 -->
<g id="edge6" class="edge">
<title>5&#45;&gt;4</title>
<path fill="none" stroke="black" d="M83.79,-215.7C82.21,-208.32 80.33,-199.52 78.55,-191.25"/>
<polygon fill="black" stroke="black" points="82,-190.63 76.48,-181.58 75.16,-192.1 82,-190.63"/>
</g>
<!-- 6&#45;&gt;2 -->
<g id="edge7" class="edge">
<title>6&#45;&gt;2</title>
<path fill="none" stroke="black" d="M197.5,-143.59C197.5,-119.61 197.5,-76.14 197.5,-47.42"/>
<polygon fill="black" stroke="black" points="201,-47.62 197.5,-37.62 194,-47.62 201,-47.62"/>
</g>
<!-- 7 -->
<g id="node8" class="node">
<title>7</title>
<polygon fill="none" stroke="black" points="127.25,-396 61.75,-396 61.75,-360 127.25,-360 127.25,-396"/>
<text xml:space="preserve" text-anchor="middle" x="94.5" y="-372.95" font-family="Times,serif" font-size="14.00">sblookup</text>
</g>
<!-- 7&#45;&gt;0 -->
<g id="edge8" class="edge">
<title>7&#45;&gt;0</title>
<path fill="none" stroke="black" d="M104.39,-359.7C108.84,-351.9 114.21,-342.51 119.17,-333.83"/>
<polygon fill="black" stroke="black" points="122.05,-335.84 123.98,-325.42 115.97,-332.36 122.05,-335.84"/>
</g>
<!-- 8 -->
<g id="node9" class="node">
<title>8</title>
<polygon fill="none" stroke="black" points="206,-396 145,-396 145,-360 206,-360 206,-396"/>
<text xml:space="preserve" text-anchor="middle" x="175.5" y="-372.95" font-family="Times,serif" font-size="14.00">sbserver</text>
</g>
<!-- 8&#45;&gt;0 -->
<g id="edge9" class="edge">
<title>8&#45;&gt;0</title>
<path fill="none" stroke="black" d="M165.37,-359.7C160.8,-351.9 155.3,-342.51 150.21,-333.83"/>
<polygon fill="black" stroke="black" points="153.36,-332.27 145.28,-325.41 147.32,-335.81 153.36,-332.27"/>
</g>
</g>
</svg>
